<?xml version="1.0" encoding="UTF-8"?>
<svg width="393px" height="548px" viewBox="0 0 393 548" version="1.1" xmlns="http://www.w3.org/2000/svg" xmlns:xlink="http://www.w3.org/1999/xlink">
    <!-- Generator: Sketch 49.3 (51167) - http://www.bohemiancoding.com/sketch -->
    <title>Page 1</title>
    <desc>Created with Sketch.</desc>
    <defs></defs>
    <g id="Concept-4" stroke="none" stroke-width="1" fill="none" fill-rule="evenodd" opacity="0.20260028">
        <g id="Extra-large:-Desktops---12-col-Copy-3" transform="translate(-1047.000000, -1520.000000)" stroke="#FFFFFF" stroke-width="0.5">
            <g id="Page-1" transform="translate(1367.500000, 1818.500000) rotate(-44.000000) translate(-1367.500000, -1818.500000) translate(1120.000000, 1580.000000)">
                <polygon id="Stroke-1" points="428 0 24 9.91256206 345.212863 152"></polygon>
                <polygon id="Stroke-3" points="24 9 143.876129 268 347 151.781151"></polygon>
                <polygon id="Stroke-5" points="393.723624 323 236 460 495 391.5"></polygon>
                <polygon id="Stroke-7" points="144 475 236 458.439659 144 268"></polygon>
                <polygon id="Stroke-9" points="144 268 235.665979 459 394 322.808725"></polygon>
                <polygon id="Stroke-11" points="495 393 429.78779 0 393 324.724511"></polygon>
                <polygon id="Stroke-13" points="144 268.21331 394 323 347.332715 152"></polygon>
                <polygon id="Stroke-15" points="346 153.333889 393.040624 325 430 0"></polygon>
                <polygon id="Stroke-17" points="24 9 40.6670963 254.717993 144 268"></polygon>
                <polygon id="Stroke-19" points="42 256 100.146045 323 145 269.07313"></polygon>
                <polygon id="Stroke-21" points="41.379585 256 0 344.621696 144 477 99.3113452 324.127704"></polygon>
                <polygon id="Stroke-23" points="99 322.647932 143 268 143 475"></polygon>
            </g>
        </g>
    </g>
</svg>